<?xml version="1.0" encoding="UTF-8" standalone="no"?>
<!-- Uploaded to: SVG Repo, www.svgrepo.com, Generator: SVG Repo Mixer Tools -->

<svg
   fill="#000000"
   width="800px"
   height="800px"
   viewBox="0 0 14 14"
   role="img"
   focusable="false"
   aria-hidden="true"
   version="1.1"
   id="svg1"
   sodipodi:docname="arch_emerald.svg"
   inkscape:version="1.4.2 (ebf0e940d0, 2025-05-08)"
   xmlns:inkscape="http://www.inkscape.org/namespaces/inkscape"
   xmlns:sodipodi="http://sodipodi.sourceforge.net/DTD/sodipodi-0.dtd"
   xmlns="http://www.w3.org/2000/svg"
   xmlns:svg="http://www.w3.org/2000/svg">
  <defs
     id="defs1" />
  <sodipodi:namedview
     id="namedview1"
     pagecolor="#ffffff"
     bordercolor="#000000"
     borderopacity="0.25"
     inkscape:showpageshadow="2"
     inkscape:pageopacity="0.0"
     inkscape:pagecheckerboard="0"
     inkscape:deskcolor="#d1d1d1"
     showgrid="false"
     inkscape:zoom="1.01625"
     inkscape:cx="400.492"
     inkscape:cy="400"
     inkscape:window-width="1884"
     inkscape:window-height="1024"
     inkscape:window-x="0"
     inkscape:window-y="0"
     inkscape:window-maximized="1"
     inkscape:current-layer="svg1" />
  <path
     d="m 6.999945,1.000025 c -0.53416,1.30962 -0.85671,2.16741 -1.45143,3.43809 0.36464,0.38652 0.81219,0.8345 1.53905,1.34286 -0.78145,-0.32156 -1.31403,-0.64213 -1.71238,-0.97714 -0.76113,1.5882 -1.95535,3.84813 -4.37524,8.19619 1.90161,-1.09784 3.37665,-1.77397 4.75048,-2.03238 -0.0589,-0.25367 -0.0918,-0.52896 -0.0895,-0.81524 l 0.002,-0.0591 c 0.0302,-1.21853 0.66434,-2.15695 1.41524,-2.09333 0.75089,0.0636 1.33494,1.10528 1.30476,2.32381 -0.006,0.22916 -0.031,0.44885 -0.0762,0.65333 1.3586,0.26611 2.81794,0.94016 4.69333,2.02286 -0.36995,-0.68111 -0.7018,-1.29335 -1.01714,-1.8781 -0.49672,-0.38499 -1.01365,-0.88613 -2.07048,-1.42857 0.72641,0.18875 1.24793,0.40612 1.65333,0.64953 -3.20619,-5.96938 -3.46623,-6.7627 -4.56571,-9.34286 z"
     id="path1" />
  <path
     style="fill:#1bd775;stroke-width:0.98401;fill-opacity:1;fill-rule:nonzero"
     d="m 60.0246,739.45103 c 0,-0.2884 12.559457,-23.20353 27.909904,-50.92251 C 183.91221,515.21737 231.24673,426.97917 278.43726,333.40468 l 29.11846,-57.73922 6.36974,4.96812 c 15.04298,11.73291 32.77246,22.61311 55.07823,33.80033 16.83871,8.44528 35.32864,16.61712 36.02436,15.92139 0.21995,-0.21995 -5.24557,-4.56607 -12.14558,-9.65804 -23.4131,-17.27808 -53.51306,-43.78285 -68.23006,-60.08053 l -6.79604,-7.52596 4.52557,-9.69421 c 15.57977,-33.37341 34.60352,-78.29041 64.86195,-153.14578 7.25407,-17.945592 12.93462,-30.736527 13.32869,-30.012301 0.37772,0.694175 10.08199,23.402357 21.56505,50.462631 57.86861,136.36958 97.27588,216.6613 209.29197,426.42924 14.84285,27.79562 26.83951,50.685 26.65922,50.86529 -0.18029,0.18029 -5.8517,-2.48468 -12.60314,-5.92217 -6.75144,-3.43749 -17.8104,-8.45643 -24.57547,-11.15319 -17.86528,-7.12165 -55.13333,-18.6952 -55.08328,-17.10605 0.0117,0.37142 4.9303,3.24627 10.93023,6.38854 27.09264,14.18892 51.06947,30.51907 86.46547,58.88997 l 21.15621,16.95731 27.89449,51.53847 c 15.34197,28.34614 27.67817,51.75477 27.41378,52.01917 -0.26439,0.26438 -8.63333,-4.14825 -18.59764,-9.80585 -97.89228,-55.58191 -174.44823,-87.8398 -243.20262,-102.47672 -2.47494,-0.52688 -2.72391,-0.90732 -2.13324,-3.2597 3.19153,-12.71043 4.4904,-46.53719 2.42696,-63.20562 -3.27629,-26.4658 -11.94787,-51.80817 -24.09331,-70.41183 -2.09089,-3.20272 -7.80962,-9.8495 -12.70828,-14.77062 -14.06514,-14.12962 -27.67763,-19.91152 -44.33101,-18.8296 -27.56017,1.79052 -52.0484,26.71597 -64.95422,66.11393 -9.85264,30.07745 -11.6701,67.5216 -4.87498,100.43613 l 0.61514,2.9796 -8.68941,1.74925 C 255.88433,640.86145 174.38855,675.51585 75.520458,731.72275 61.099415,739.92116 60.0246,740.45721 60.0246,739.45103 Z"
     id="path2"
     transform="scale(0.0175)" />
</svg>
