<?xml version="1.0" encoding="UTF-8" standalone="no"?>
<!-- Uploaded to: SVG Repo, www.svgrepo.com, Generator: SVG Repo Mixer Tools -->

<svg
   width="466.66736"
   height="466.66736"
   viewBox="0 0 44.333399 44.333399"
   version="1.1"
   enable-background="new 0 0 76.00 76.00"
   xml:space="preserve"
   id="svg1"
   sodipodi:docname="globe_emerald.svg"
   inkscape:version="1.4.2 (ebf0e940d0, 2025-05-08)"
   xmlns:inkscape="http://www.inkscape.org/namespaces/inkscape"
   xmlns:sodipodi="http://sodipodi.sourceforge.net/DTD/sodipodi-0.dtd"
   xmlns="http://www.w3.org/2000/svg"
   xmlns:svg="http://www.w3.org/2000/svg"><defs
   id="defs1" /><sodipodi:namedview
   id="namedview1"
   pagecolor="#ffffff"
   bordercolor="#000000"
   borderopacity="0.25"
   inkscape:showpageshadow="2"
   inkscape:pageopacity="0.0"
   inkscape:pagecheckerboard="0"
   inkscape:deskcolor="#d1d1d1"
   inkscape:zoom="1.005"
   inkscape:cx="197.51244"
   inkscape:cy="211.44279"
   inkscape:window-width="1789"
   inkscape:window-height="1000"
   inkscape:window-x="0"
   inkscape:window-y="0"
   inkscape:window-maximized="1"
   inkscape:current-layer="svg1" />
	<path
   fill="#000000"
   fill-opacity="1"
   stroke-width="0.2"
   stroke-linejoin="round"
   d="M 22.1667,0 C 34.409,0 44.3334,9.9244 44.3334,22.1667 44.3334,34.409 34.409,44.3334 22.1667,44.3334 9.9244,44.3334 0,34.409 0,22.1667 0,9.9244 9.9244,0 22.1667,0 Z M 3.2317,20.5834 H 9.5318 C 9.6375,17.9627 10.0035,15.4678 10.5849,13.1773 9.1138,12.6612 7.7563,12.0498 6.5386,11.358 4.6948,14.0189 3.513,17.1735 3.2317,20.5834 Z M 14.2208,4.903 c -2.1572,0.9945 -4.0962,2.3814 -5.7255,4.0693 0.9074,0.47 1.9109,0.8933 2.9946,1.2621 0.7408,-2.0258 1.6647,-3.8267 2.7309,-5.3314 z m 6.3626,15.6804 v -5.5735 c -2.4704,-0.0996 -4.8289,-0.4306 -7.0098,-0.9551 -0.4748,2.0081 -0.7787,4.2093 -0.8744,6.5286 z m 0,-17.154 c -2.5143,0.8436 -4.6936,3.6624 -6.1256,7.6312 1.8983,0.4218 3.9604,0.6926 6.1256,0.7819 z m 20.5182,17.154 c -0.2813,-3.4099 -1.463,-6.5644 -3.3068,-9.2254 -1.2177,0.6918 -2.5753,1.3033 -4.0463,1.8194 0.5813,2.2904 0.9473,4.7853 1.053,7.406 z M 30.1126,4.903 c 1.0661,1.5047 1.99,3.3057 2.7308,5.3314 C 33.9272,9.8656 34.9306,9.4423 35.8381,8.9723 34.2088,7.2844 32.2698,5.8975 30.1126,4.903 Z M 23.75,20.5834 h 7.8841 c -0.0956,-2.3193 -0.3996,-4.5205 -0.8743,-6.5286 -2.1809,0.5245 -4.5395,0.8555 -7.0098,0.9551 z m 0,-17.154 v 8.4131 c 2.1651,-0.0893 4.2273,-0.3601 6.1255,-0.7819 C 28.4436,7.0918 26.2642,4.2731 23.75,3.4294 Z m 17.3516,20.3207 h -6.3001 c -0.1057,2.6206 -0.4717,5.1155 -1.053,7.406 1.471,0.5161 2.8286,1.1275 4.0463,1.8193 1.8438,-2.6609 3.0255,-5.8155 3.3068,-9.2253 z m -10.989,15.6804 c 2.1572,-0.9946 4.0962,-2.3815 5.7255,-4.0694 -0.9074,-0.47 -1.9109,-0.8933 -2.9947,-1.2621 -0.7408,2.0258 -1.6647,3.8268 -2.7308,5.3315 z M 23.75,23.7501 v 5.5734 c 2.4703,0.0996 4.8289,0.4306 7.0098,0.9551 0.4747,-2.0081 0.7787,-4.2092 0.8744,-6.5285 z m 0,17.1539 c 2.5142,-0.8436 4.6936,-3.6623 6.1256,-7.6312 C 27.9773,32.851 25.9151,32.5802 23.75,32.4909 Z M 3.2317,23.7501 c 0.2813,3.4098 1.4631,6.5644 3.3069,9.2253 1.2177,-0.6918 2.5752,-1.3032 4.0463,-1.8193 -0.5814,-2.2905 -0.9474,-4.7854 -1.0531,-7.406 z m 10.9891,15.6804 c -1.0661,-1.5047 -1.99,-3.3057 -2.7309,-5.3315 -1.0837,0.3688 -2.0872,0.7921 -2.9946,1.2622 1.6293,1.6878 3.5683,3.0748 5.7255,4.0693 z m 6.3626,-15.6804 h -7.8842 c 0.0957,2.3193 0.3996,4.5205 0.8744,6.5285 2.1809,-0.5245 4.5394,-0.8555 7.0098,-0.9551 z m 0,17.1539 v -8.4131 c -2.1652,0.0893 -4.2274,0.3601 -6.1256,0.7819 1.432,3.9689 3.6113,6.7876 6.1256,7.6312 z"
   id="path1"
   style="fill:#deff5d;fill-opacity:1" />
<path
   style="fill:#deff5d;fill-opacity:1;stroke-width:0.00417756"
   d="m 15.79082,20.620077 v -0.03342 h 2.397918 2.397919 v -0.559793 -0.559792 h 0.03342 0.03342 v 0.593213 0.593213 h -2.43134 -2.431338 z"
   id="path3" /><path
   style="fill:#deff5d;fill-opacity:1;stroke-width:0.000522195"
   d="m 41.105259,23.798555 c -0.05592,-0.02508 -0.139368,-0.04425 -0.262925,-0.06041 l -0.01149,-0.0015 0.142167,-5.5e-5 0.142168,-5.5e-5 -6.6e-5,0.0218 c -3.7e-5,0.01199 -1.9e-4,0.02687 -3.8e-4,0.03306 l -2.85e-4,0.01126 z"
   id="path5" /><path
   style="fill:#1bd775;fill-opacity:1;stroke-width:0.995025"
   d="m 224.37811,465.94133 c -4.10448,-0.1253 -11.71642,-0.70585 -16.91542,-1.29009 C 116.75664,454.45808 40.504852,392.19134 11.923441,304.97512 -5.9033879,250.57653 -2.566549,190.50768 21.228835,137.46201 35.176001,106.3704 60.021344,74.09174 86.392485,52.802479 120.61343,25.176116 162.65512,7.4483987 206.96517,1.9605966 c 11.81247,-1.46297511 40.25344,-1.45851949 52.73632,0.00826 63.14989,7.4203277 121.26135,40.6693844 159.16166,91.0659674 24.11757,32.069466 38.655,66.739206 45.04331,107.421966 2.37749,15.14058 2.36718,50.38443 -0.0192,65.75309 -12.09346,77.88293 -58.96117,142.09429 -128.56385,176.13962 -34.5957,16.92208 -71.6089,24.79271 -110.94527,23.59183 z m -6.96517,-79.91317 v -44.81761 l -7.71145,0.59651 c -22.08931,1.70873 -55.47138,6.56547 -57.24534,8.32859 -0.95463,0.94881 6.81716,19.72379 12.39076,29.93344 8.98666,16.46166 21.71341,32.22363 33.11496,41.01262 3.65621,2.81842 16.52769,9.70253 18.20728,9.73788 0.97701,0.0206 1.24379,-9.58673 1.24379,-44.79143 z m 40.00482,41.80976 c 16.31465,-8.09455 31.89185,-24.8529 44.402,-47.76883 3.81919,-6.99594 13.10561,-28.0854 13.10561,-29.76283 0,-1.55531 -36.34478,-6.90361 -57.46268,-8.45589 l -8.20896,-0.6034 v 44.7994 c 0,30.78907 0.32864,44.7994 1.05084,44.7994 0.57796,0 3.77889,-1.35353 7.11319,-3.00785 z M 148.51395,412.68657 c -8.43732,-12.88358 -18.54087,-32.16749 -23.73046,-45.2926 -1.67286,-4.23087 -3.34395,-7.99708 -3.71352,-8.36937 -1.03101,-1.03858 -32.015244,11.7305 -32.015244,13.19398 0,0.38577 2.798508,3.29422 6.218906,6.46321 13.812818,12.79758 29.556858,24.07625 44.860718,32.13721 8.89986,4.68779 10.45325,5.034 8.3796,1.86757 z m 183.29397,-4.75226 c 5.88915,-3.37083 15.35799,-9.59735 21.04186,-13.83674 10.32681,-7.70238 24.76216,-20.47463 24.76216,-21.90932 0,-1.60762 -31.44266,-14.43346 -32.23617,-13.14952 -0.24527,0.39684 -1.81579,4.16994 -3.49005,8.38463 -5.26812,13.26172 -15.3284,32.42997 -23.84843,45.43937 -1.53355,2.3416 -1.51104,2.39651 0.74074,1.80766 1.27729,-0.33401 7.14074,-3.36526 13.02989,-6.73608 z M 79.114378,342.28359 c 8.254284,-4.1422 23.561362,-10.67286 31.153232,-13.29133 1.1614,-0.40058 1.6178,-1.24993 1.27377,-2.37044 -3.40685,-11.09614 -8.91117,-47.04487 -10.15931,-66.35039 l -0.68014,-10.52019 H 67.06451 33.427095 l 0.548254,5.22388 c 2.199801,20.96014 10.095046,47.69791 19.873045,67.3014 6.017561,12.06435 13.672374,24.98716 14.801113,24.98716 0.297483,0 5.006675,-2.24104 10.464871,-4.98009 z m 323.444042,-1.23881 c 6.80877,-10.58479 16.32747,-30.73975 20.61192,-43.64388 3.95939,-11.92511 8.39363,-31.6842 9.52097,-42.42578 l 0.54826,-5.22388 h -33.64818 -33.64817 l -0.70394,10.69652 c -1.07208,16.29063 -3.29994,33.01253 -6.59523,49.50249 -1.64045,8.20895 -3.20243,15.64354 -3.47107,16.5213 -0.37965,1.24045 1.89874,2.54382 10.22899,5.85158 5.89459,2.34062 15.41893,6.6367 21.16519,9.54685 5.74627,2.91015 10.79497,5.31425 11.21932,5.34244 0.42436,0.0282 2.57173,-2.74725 4.77194,-6.16764 z M 182.44099,312.01713 c 6.76045,-0.86477 17.39478,-1.86378 23.63184,-2.22001 l 11.34011,-0.64768 V 279.45035 249.75124 H 175.11262 132.8123 l 0.47332,3.73135 c 0.26032,2.05224 0.7328,7.76119 1.04994,12.68656 0.89145,13.84481 5.52959,44.17171 7.92716,51.83244 0.22942,0.73308 4.81729,0.19248 14.11323,-1.66298 7.57531,-1.51203 19.30459,-3.45669 26.06504,-4.32148 z m 144.25063,-4.55444 c 2.62505,-13.37496 4.87709,-29.90215 5.62676,-41.29354 0.32414,-4.92537 0.80235,-10.63432 1.06266,-12.68656 l 0.47333,-3.73135 h -42.30032 -42.30032 v 29.69872 29.69872 l 11.15144,0.63804 c 15.27389,0.87391 33.93634,3.33405 49.74031,6.55692 7.28069,1.48474 13.52066,2.44466 13.8666,2.13317 0.34595,-0.3115 1.55175,-5.26785 2.67954,-11.01412 z M 101.38207,206.39523 c 1.24814,-19.30551 6.75246,-55.25424 10.15931,-66.35038 0.34403,-1.12051 -0.11237,-1.96986 -1.27377,-2.37044 -7.60964,-2.6246 -22.910219,-9.1548 -31.215648,-13.32266 -5.492524,-2.75627 -10.391729,-4.7609 -10.887123,-4.45474 -1.626276,1.0051 -10.93201,17.12093 -15.919885,27.57033 -8.645395,18.11178 -16.227328,44.76499 -18.269605,64.2242 l -0.548254,5.22388 h 33.637415 33.63742 z m 116.03087,-19.18452 v -29.70473 l -11.69155,-0.69335 c -15.62003,-0.92634 -32.61791,-3.16776 -49.34131,-6.5064 -9.38704,-1.87401 -13.87867,-2.39975 -14.11323,-1.65192 -2.39688,7.64158 -7.03895,37.98469 -7.93129,51.8432 -0.31714,4.92538 -0.78962,10.63433 -1.04994,12.68657 l -0.47332,3.73134 h 42.30032 42.30032 z m 115.9681,25.97337 c -0.26031,-2.05224 -0.73279,-7.76119 -1.04994,-12.68657 -0.89834,-13.95183 -5.56375,-44.38334 -7.95911,-51.91574 -0.27878,-0.87663 -1.93448,-0.80494 -6.61201,0.28625 -12.57731,2.93408 -36.58141,6.4071 -52.33709,7.57237 l -16.16916,1.19583 v 29.6396 29.6396 h 42.30032 42.30032 z m 99.31027,-1.49254 c -2.04226,-19.45921 -9.62421,-46.11242 -18.2696,-64.2242 -4.98692,-10.44741 -14.29351,-26.56517 -15.91919,-27.5699 -0.49502,-0.30594 -5.73372,1.86165 -11.64157,4.81687 -5.90786,2.95521 -15.56439,7.28826 -21.45898,9.62899 -8.3302,3.30792 -10.60864,4.61137 -10.22899,5.85181 0.26864,0.87777 1.83062,8.31235 3.47107,16.52131 3.29529,16.48996 5.52315,33.21186 6.59523,49.50249 l 0.70394,10.69651 h 33.64817 33.64818 z M 217.41294,80.597015 c 0,-29.914444 -0.33851,-44.776119 -1.01987,-44.776119 -1.29127,0 -13.44147,6.206797 -17.35973,8.868031 -10.12832,6.879025 -25.04776,25.168551 -34.18643,41.908644 -5.69416,10.430486 -13.33678,28.992159 -12.34546,29.983479 1.92334,1.92334 40.82523,7.31973 62.17517,8.62482 l 2.73632,0.16726 z m 60.69651,42.180065 c 16.2307,-1.87367 36.81592,-5.46148 36.81592,-6.41667 0,-1.67743 -9.28642,-22.7669 -13.10561,-29.762839 -9.40294,-17.224194 -22.50496,-33.203581 -34.25879,-41.782455 -4.35734,-3.180326 -15.51194,-8.99422 -17.2564,-8.99422 -0.7222,0 -1.05084,14.010324 -1.05084,44.799402 V 125.4197 l 8.20896,-0.6034 c 4.51492,-0.33187 13.80597,-1.24952 20.64676,-2.03922 z M 124.78349,99.272697 c 5.2134,-13.185319 15.29149,-32.40679 23.81597,-45.423113 1.5094,-2.304729 1.48521,-2.349225 -0.88707,-1.632129 -4.55588,1.377162 -23.29718,12.48714 -32.53313,19.285886 -9.39279,6.914199 -26.124534,21.588816 -26.124534,22.91259 0,1.488791 30.967144,14.281939 32.015244,13.226139 0.36957,-0.37229 2.04066,-4.13851 3.71352,-8.369373 z m 243.62447,0.01008 c 5.06219,-2.224541 9.20398,-4.360268 9.20398,-4.746065 0,-0.84179 -9.31308,-9.697924 -16.91542,-16.085456 -11.17119,-9.386099 -40.22639,-27.444816 -42.70621,-26.543237 -0.50041,0.181933 1.32584,3.912878 4.05834,8.290987 6.11276,9.794085 15.76373,28.790265 19.83954,39.050517 1.67289,4.211277 3.24231,7.981567 3.48758,8.378417 0.51487,0.83307 9.81015,-2.53485 23.03219,-8.345163 z"
   id="path6"
   transform="scale(0.095)" /></svg>
