<?xml version="1.0" encoding="UTF-8" standalone="no"?>
<!-- Uploaded to: SVG Repo, www.svgrepo.com, Generator: SVG Repo Mixer Tools -->

<svg
   width="466.66736"
   height="466.66736"
   viewBox="0 0 44.333399 44.333399"
   version="1.1"
   enable-background="new 0 0 76.00 76.00"
   xml:space="preserve"
   id="svg1"
   sodipodi:docname="globe_chartreuse.svg"
   inkscape:version="1.4.2 (ebf0e940d0, 2025-05-08)"
   xmlns:inkscape="http://www.inkscape.org/namespaces/inkscape"
   xmlns:sodipodi="http://sodipodi.sourceforge.net/DTD/sodipodi-0.dtd"
   xmlns="http://www.w3.org/2000/svg"
   xmlns:svg="http://www.w3.org/2000/svg"><defs
   id="defs1" /><sodipodi:namedview
   id="namedview1"
   pagecolor="#ffffff"
   bordercolor="#000000"
   borderopacity="0.25"
   inkscape:showpageshadow="2"
   inkscape:pageopacity="0.0"
   inkscape:pagecheckerboard="0"
   inkscape:deskcolor="#d1d1d1"
   inkscape:zoom="1.005"
   inkscape:cx="197.51244"
   inkscape:cy="211.44279"
   inkscape:window-width="1789"
   inkscape:window-height="1000"
   inkscape:window-x="0"
   inkscape:window-y="0"
   inkscape:window-maximized="1"
   inkscape:current-layer="svg1" />
	<path
   fill="#000000"
   fill-opacity="1"
   stroke-width="0.2"
   stroke-linejoin="round"
   d="M 22.1667,0 C 34.409,0 44.3334,9.9244 44.3334,22.1667 44.3334,34.409 34.409,44.3334 22.1667,44.3334 9.9244,44.3334 0,34.409 0,22.1667 0,9.9244 9.9244,0 22.1667,0 Z M 3.2317,20.5834 H 9.5318 C 9.6375,17.9627 10.0035,15.4678 10.5849,13.1773 9.1138,12.6612 7.7563,12.0498 6.5386,11.358 4.6948,14.0189 3.513,17.1735 3.2317,20.5834 Z M 14.2208,4.903 c -2.1572,0.9945 -4.0962,2.3814 -5.7255,4.0693 0.9074,0.47 1.9109,0.8933 2.9946,1.2621 0.7408,-2.0258 1.6647,-3.8267 2.7309,-5.3314 z m 6.3626,15.6804 v -5.5735 c -2.4704,-0.0996 -4.8289,-0.4306 -7.0098,-0.9551 -0.4748,2.0081 -0.7787,4.2093 -0.8744,6.5286 z m 0,-17.154 c -2.5143,0.8436 -4.6936,3.6624 -6.1256,7.6312 1.8983,0.4218 3.9604,0.6926 6.1256,0.7819 z m 20.5182,17.154 c -0.2813,-3.4099 -1.463,-6.5644 -3.3068,-9.2254 -1.2177,0.6918 -2.5753,1.3033 -4.0463,1.8194 0.5813,2.2904 0.9473,4.7853 1.053,7.406 z M 30.1126,4.903 c 1.0661,1.5047 1.99,3.3057 2.7308,5.3314 C 33.9272,9.8656 34.9306,9.4423 35.8381,8.9723 34.2088,7.2844 32.2698,5.8975 30.1126,4.903 Z M 23.75,20.5834 h 7.8841 c -0.0956,-2.3193 -0.3996,-4.5205 -0.8743,-6.5286 -2.1809,0.5245 -4.5395,0.8555 -7.0098,0.9551 z m 0,-17.154 v 8.4131 c 2.1651,-0.0893 4.2273,-0.3601 6.1255,-0.7819 C 28.4436,7.0918 26.2642,4.2731 23.75,3.4294 Z m 17.3516,20.3207 h -6.3001 c -0.1057,2.6206 -0.4717,5.1155 -1.053,7.406 1.471,0.5161 2.8286,1.1275 4.0463,1.8193 1.8438,-2.6609 3.0255,-5.8155 3.3068,-9.2253 z m -10.989,15.6804 c 2.1572,-0.9946 4.0962,-2.3815 5.7255,-4.0694 -0.9074,-0.47 -1.9109,-0.8933 -2.9947,-1.2621 -0.7408,2.0258 -1.6647,3.8268 -2.7308,5.3315 z M 23.75,23.7501 v 5.5734 c 2.4703,0.0996 4.8289,0.4306 7.0098,0.9551 0.4747,-2.0081 0.7787,-4.2092 0.8744,-6.5285 z m 0,17.1539 c 2.5142,-0.8436 4.6936,-3.6623 6.1256,-7.6312 C 27.9773,32.851 25.9151,32.5802 23.75,32.4909 Z M 3.2317,23.7501 c 0.2813,3.4098 1.4631,6.5644 3.3069,9.2253 1.2177,-0.6918 2.5752,-1.3032 4.0463,-1.8193 -0.5814,-2.2905 -0.9474,-4.7854 -1.0531,-7.406 z m 10.9891,15.6804 c -1.0661,-1.5047 -1.99,-3.3057 -2.7309,-5.3315 -1.0837,0.3688 -2.0872,0.7921 -2.9946,1.2622 1.6293,1.6878 3.5683,3.0748 5.7255,4.0693 z m 6.3626,-15.6804 h -7.8842 c 0.0957,2.3193 0.3996,4.5205 0.8744,6.5285 2.1809,-0.5245 4.5394,-0.8555 7.0098,-0.9551 z m 0,17.1539 v -8.4131 c -2.1652,0.0893 -4.2274,0.3601 -6.1256,0.7819 1.432,3.9689 3.6113,6.7876 6.1256,7.6312 z"
   id="path1"
   style="fill:#deff5d;fill-opacity:1" />
<path
   style="fill:#deff5d;fill-opacity:1;stroke-width:0.00417756"
   d="m 15.79082,20.620077 v -0.03342 h 2.397918 2.397919 v -0.559793 -0.559792 h 0.03342 0.03342 v 0.593213 0.593213 h -2.43134 -2.431338 z"
   id="path3" /><path
   style="fill:#deff5d;fill-opacity:1;stroke-width:0.000522195"
   d="m 41.105259,23.798555 c -0.05592,-0.02508 -0.139368,-0.04425 -0.262925,-0.06041 l -0.01149,-0.0015 0.142167,-5.5e-5 0.142168,-5.5e-5 -6.6e-5,0.0218 c -3.7e-5,0.01199 -1.9e-4,0.02687 -3.8e-4,0.03306 l -2.85e-4,0.01126 z"
   id="path5" /></svg>
