<?xml version="1.0" encoding="UTF-8" standalone="no"?>
<!-- Uploaded to: SVG Repo, www.svgrepo.com, Generator: SVG Repo Mixer Tools -->

<svg
   fill="#000000"
   width="800px"
   height="800px"
   viewBox="0 0 24 24"
   role="img"
   version="1.1"
   id="svg1"
   sodipodi:docname="neovim_chartreuse.svg"
   inkscape:version="1.4.2 (ebf0e940d0, 2025-05-08)"
   xmlns:inkscape="http://www.inkscape.org/namespaces/inkscape"
   xmlns:sodipodi="http://sodipodi.sourceforge.net/DTD/sodipodi-0.dtd"
   xmlns="http://www.w3.org/2000/svg"
   xmlns:svg="http://www.w3.org/2000/svg"
   xmlns:rdf="http://www.w3.org/1999/02/22-rdf-syntax-ns#"
   xmlns:cc="http://creativecommons.org/ns#"
   xmlns:dc="http://purl.org/dc/elements/1.1/">
  <defs
     id="defs1" />
  <sodipodi:namedview
     id="namedview1"
     pagecolor="#ffffff"
     bordercolor="#000000"
     borderopacity="0.25"
     inkscape:showpageshadow="2"
     inkscape:pageopacity="0.0"
     inkscape:pagecheckerboard="0"
     inkscape:deskcolor="#d1d1d1"
     inkscape:zoom="0.70710678"
     inkscape:cx="329.51176"
     inkscape:cy="453.25544"
     inkscape:window-width="1884"
     inkscape:window-height="1024"
     inkscape:window-x="0"
     inkscape:window-y="0"
     inkscape:window-maximized="1"
     inkscape:current-layer="svg1" />
  <title
     id="title1">Neovim icon</title>
  <path
     d="M2.902,4.998l3.864,5.754v12.151l-4.207-4.198V5.344L2.902,4.998 M2.97,4.287L2.107,5.158v13.734l5.112,5.101 v-13.38L2.97,4.287L2.97,4.287z M21.858,5.207L16.676,0v13.331l4.335,6.519c0,0,0.882-0.957,0.882-0.957L21.858,5.207z M7.215,0.001 l13.29,20.28L16.786,24L3.489,3.765L7.215,0.001z"
     id="path1"
     style="fill:#deff5d;fill-opacity:1" />
  <path
     style="fill:#deff5d;fill-opacity:1;stroke-width:1.41421"
     d="M 338.13108,461.46498 117.2362,125.31351 178.46813,64.069443 c 33.67756,-33.684235 61.697,-61.0842792 62.26543,-60.8889866 1.20149,0.4127949 440.91737,671.1626736 440.91737,672.5826536 0,1.17644 -120.60051,121.85334 -121.7762,121.85334 -0.46682,0 -100.25146,-151.26816 -221.74365,-336.15147 z"
     id="path7"
     transform="scale(0.03)" />
  <path
     style="fill:#deff5d;fill-opacity:1"
     d="M 628.75279,552.36328 557.20014,444.52174 V 223.34806 2.1743884 l 85.20637,86.1243956 85.20636,86.124386 0.70711,227.09739 0.70711,227.09737 -5.56297,6.36396 c -3.05962,3.50018 -9.522,10.60722 -14.36081,15.79344 l -8.79787,9.42948 z"
     id="path8"
     transform="scale(0.03)" />
  <path
     style="fill:#deff5d;fill-opacity:1;stroke-width:1.41421"
     d="m 155.20994,713.11727 -84.499262,-84.50811 0.05955,-227.684 0.05954,-227.684 14.023924,-14.54599 14.023924,-14.546 13.030804,19.49574 c 7.16694,10.72266 39.01513,58.14466 70.77375,105.38223 l 57.74295,85.88648 -0.35796,221.35588 -0.35796,221.35587 z m 71.06423,-152.3569 V 357.84541 l -64.64343,-96.19445 -64.643434,-96.19447 -6.067246,5.95455 -6.067247,5.95456 V 400.86514 624.36468 L 154.49747,694.02 c 38.30457,38.31042 70.12437,69.65532 70.71068,69.65532 0.58632,0 1.06602,-91.31172 1.06602,-202.91495 z"
     id="path9"
     transform="scale(0.03)" />
  <metadata
     id="metadata9">
    <rdf:RDF>
      <cc:Work
         rdf:about="">
        <dc:title>Neovim icon</dc:title>
      </cc:Work>
    </rdf:RDF>
  </metadata>
  <path
     style="fill:#deff5d;fill-opacity:1;stroke-width:1.41421"
     d="m 628.80968,552.66158 -71.60829,-107.89142 0.0466,-221.32442 0.0466,-221.3244197 85.39848,86.2670267 85.39848,86.267023 0.46777,226.98128 0.4678,226.98128 -4.85841,5.65685 c -2.67211,3.11127 -9.10916,10.29666 -14.30455,15.96753 L 700.418,660.553 Z"
     id="path10"
     transform="scale(0.03)" />
  <path
     style="fill:#deff5d;fill-opacity:1;stroke-width:1.41421"
     d="m 628.83484,551.40469 -71.79642,-108.04874 0.7462,-91.21677 c 0.41041,-50.16923 0.79949,-148.81063 0.86464,-219.20311 l 0.11844,-127.9863226 84.03431,84.8522006 84.03432,84.852192 0.40932,49.4981 c 0.22512,27.22395 0.56606,129.28712 0.75763,226.80705 l 0.34829,177.30897 -7.68144,8.66011 c -4.2248,4.76307 -10.46187,11.77973 -13.86017,15.59259 l -6.17871,6.93248 z"
     id="path11"
     transform="scale(0.03)" />
  <path
     style="fill:#deff5d;fill-opacity:1;stroke-width:1.41421"
     d="M 512.72438,727.25932 C 455.94089,640.899 404.97592,563.36498 379.09488,523.96612 368.365,507.63196 305.05248,411.28444 238.40041,309.86054 L 117.21482,125.45345 177.97869,64.494494 c 33.42013,-33.527429 61.25252,-61.2771582 61.84977,-61.6660669 0.59725,-0.3889087 17.14878,23.7941429 36.78119,53.7401149 19.63241,29.945972 55.71516,84.994238 80.1839,122.329468 264.22801,403.16809 324.85738,495.88316 324.85738,496.77534 0,1.24868 -120.54927,121.9431 -121.79645,121.9431 -0.47795,0 -21.68649,-31.66071 -47.1301,-70.35713 z"
     id="path12"
     transform="scale(0.03)" />
  <path
     style="fill:#deff5d;fill-opacity:1;stroke-width:1.41421"
     d="M 536.3268,763.32177 C 502.87184,712.59717 494.16745,699.35624 293.44709,393.85848 232.12142,300.52038 173.99799,212.06132 164.28391,197.28279 154.56983,182.50426 140.00376,160.31444 131.91485,147.97209 L 117.20774,125.53145 171.9975,70.190348 C 202.13187,39.75274 229.80832,11.720309 233.50073,7.8960579 l 6.71348,-6.95318443 20.82571,31.70192153 c 27.10959,41.267515 174.12725,265.546035 209.89652,320.201485 15.27127,23.33453 68.92937,105.24481 119.24022,182.02285 50.31084,76.77805 91.47427,140.10223 91.47427,140.72041 0,1.31683 -120.50185,122.02691 -121.81641,122.02691 -0.48892,0 -11.06739,-15.43261 -23.50772,-34.29468 z"
     id="path13"
     transform="scale(0.03)" />
</svg>
