<?xml version="1.0" encoding="UTF-8" standalone="no"?>
<!-- Uploaded to: SVG Repo, www.svgrepo.com, Generator: SVG Repo Mixer Tools -->

<svg
   width="575"
   height="600"
   viewBox="0 0 54.625 57"
   version="1.1"
   enable-background="new 0 0 76.00 76.00"
   xml:space="preserve"
   id="svg1"
   sodipodi:docname="power_chartreuse.svg"
   inkscape:version="1.4.2 (ebf0e940d0, 2025-05-08)"
   xmlns:inkscape="http://www.inkscape.org/namespaces/inkscape"
   xmlns:sodipodi="http://sodipodi.sourceforge.net/DTD/sodipodi-0.dtd"
   xmlns="http://www.w3.org/2000/svg"
   xmlns:svg="http://www.w3.org/2000/svg"><defs
   id="defs1" /><sodipodi:namedview
   id="namedview1"
   pagecolor="#ffffff"
   bordercolor="#000000"
   borderopacity="0.25"
   inkscape:showpageshadow="2"
   inkscape:pageopacity="0.0"
   inkscape:pagecheckerboard="0"
   inkscape:deskcolor="#d1d1d1"
   showguides="true"
   inkscape:zoom="0.70710678"
   inkscape:cx="37.476659"
   inkscape:cy="522.55191"
   inkscape:window-width="1789"
   inkscape:window-height="1000"
   inkscape:window-x="0"
   inkscape:window-y="0"
   inkscape:window-maximized="1"
   inkscape:current-layer="svg1" />
	
<g
   id="g4"
   transform="matrix(0.9762309,0,0,0.97666959,-9.8306452,-6.6185968)"><path
     fill="#000000"
     fill-opacity="1"
     stroke-width="0.288967"
     stroke-linejoin="round"
     d="M 35.71609,33.712867 V 6.7767 h 6.994375 V 33.712867 Z M 66.025,38.202133 C 66.025,53.078552 53.499031,65.1383 38.0475,65.1383 22.595968,65.1383 10.07,53.078552 10.07,38.202133 c 0,-12.551119 8.916282,-23.097337 20.983125,-26.087535 v 9.435455 c -6.835493,2.663987 -11.65734,9.115908 -11.65734,16.65208 0,9.917613 8.350694,17.957492 18.651715,17.957492 10.301021,0 18.651715,-8.039879 18.651715,-17.957492 0,-6.646711 -3.750899,-12.450038 -9.32593,-15.554927 V 12.798777 C 58.239746,16.496544 66.025,26.473985 66.025,38.202133 Z"
     id="path1"
     style="fill:#deff5d;fill-opacity:1" /><path
     style="fill:#deff5d;fill-opacity:1"
     d="M 36.349836,65.033967 C 27.476401,64.430678 19.523779,59.950342 14.679371,52.825294 9.259281,44.853544 8.669132,34.68459 13.130772,26.141112 16.579271,19.537675 22.905817,14.477011 30.340106,12.375206 l 0.713019,-0.201583 v 4.640334 4.640332 l -0.848832,0.367387 c -5.56411,2.408227 -9.618585,7.592065 -10.64586,13.611237 -0.285559,1.673187 -0.180234,5.086108 0.205845,6.670218 0.811036,3.327731 2.355688,6.103215 4.738048,8.513488 2.675852,2.707205 6.18481,4.561679 10.035862,5.303926 1.796359,0.346228 5.503543,0.316165 7.273192,-0.05899 1.860336,-0.394372 3.211277,-0.86206 4.873601,-1.687212 4.86581,-2.415318 8.380429,-6.812407 9.648596,-12.07122 0.383074,-1.588521 0.487068,-5.005715 0.20299,-6.670217 -0.870349,-5.099691 -3.752666,-9.43932 -8.133317,-12.245561 L 47.486511,22.600087 V 17.77208 c 0,-2.655405 0.02783,-4.828008 0.06184,-4.828008 0.034,0 0.691004,0.259624 1.459991,0.576942 12.632423,5.212712 19.462777,18.51168 16.064346,31.277915 -2.802472,10.527521 -11.934484,18.453134 -23.018696,19.977778 -1.515974,0.208524 -4.464817,0.341515 -5.70415,0.257256 z"
     id="path2" /><path
     style="fill:#deff5d;fill-opacity:1"
     d="M 35.806583,20.20115 V 6.7984463 h 3.395329 3.395327 V 20.20115 33.603854 h -3.395327 -3.395329 z"
     id="path3" /><path
     style="fill:#deff5d;fill-opacity:1"
     d="m 35.721692,26.801101 v -6.91138 h 0.04201 0.04201 v 6.859372 6.859371 h 3.397216 3.397216 v -6.859371 -6.859372 h 0.05402 0.05402 v 6.91138 6.91138 h -3.49325 -3.493251 z"
     id="path4" /></g><path
   style="fill:#deff5d;fill-opacity:1"
   d="M 271.5,598.88926 C 237.77386,597.38591 203.55334,589.49079 171.60553,575.84231 84.5403,538.64703 21.510658,461.34845 5.0503761,371.58164 -2.4433995,330.71403 -0.3142264,287.87779 11.168143,248.5 34.980486,166.83763 98.172623,98.734273 179.5,67.085575 191.69805,62.33868 211.5249,56 214.17472,56 c 1.08197,0 1.32528,8.812583 1.32528,48 0,37.72844 -0.26749,48.00196 -1.25,48.00918 -2.00534,0.0147 -22.61029,10.24325 -30.25,15.01642 -25.89973,16.18175 -48.76559,39.53077 -63.872,65.22162 -40.649137,69.13031 -30.236106,157.23117 25.42754,215.13314 17.84548,18.56308 31.90471,28.98838 54.08722,40.10714 29.10024,14.5862 60.84209,21.38524 94.35724,20.21113 31.20787,-1.09327 56.01378,-7.39921 83.62317,-21.25792 19.37813,-9.72699 34.74782,-21.30032 51.68538,-38.91897 C 481.6007,393.12684 494.3738,312.36349 461.41738,244.5 446.25797,213.28391 421.02266,185.63785 390.50005,166.8079 l -6.98293,-4.3079 -0.009,-49.75 C 383.50385,85.3875 383.87626,63 384.33613,63 386.5741,63 410.37109,73.060262 421,78.499782 480.65675,109.03011 527.74759,158.85498 552.84545,218 604.25526,339.15113 561.41063,476.90692 449.23828,551.12197 396.88521,585.75961 337.14318,601.81533 271.5,598.88926 Z"
   id="path5"
   transform="scale(0.095)" /><path
   style="fill:#deff5d;fill-opacity:1"
   d="m 264.17926,276.34593 c -0.85414,-0.85414 -0.85771,-46.48984 -0.0137,-175.09593 L 264.83006,0 h 34.71227 34.71227 l 0.72963,135.25 c 0.40129,74.3875 0.56901,136.6 0.3727,138.25 l -0.35693,3 -35.07074,0.26259 c -19.28891,0.14443 -35.37641,-0.0431 -35.75,-0.41666 z"
   id="path6"
   transform="scale(0.095)" /></svg>
