<?xml version="1.0" encoding="UTF-8" standalone="no"?>
<!-- Uploaded to: SVG Repo, www.svgrepo.com, Generator: SVG Repo Mixer Tools -->

<svg
   width="575"
   height="600"
   viewBox="0 0 54.625 57"
   version="1.1"
   enable-background="new 0 0 76.00 76.00"
   xml:space="preserve"
   id="svg1"
   sodipodi:docname="power.svg"
   inkscape:version="1.4.2 (ebf0e940d0, 2025-05-08)"
   xmlns:inkscape="http://www.inkscape.org/namespaces/inkscape"
   xmlns:sodipodi="http://sodipodi.sourceforge.net/DTD/sodipodi-0.dtd"
   xmlns="http://www.w3.org/2000/svg"
   xmlns:svg="http://www.w3.org/2000/svg"><defs
   id="defs1" /><sodipodi:namedview
   id="namedview1"
   pagecolor="#ffffff"
   bordercolor="#000000"
   borderopacity="0.25"
   inkscape:showpageshadow="2"
   inkscape:pageopacity="0.0"
   inkscape:pagecheckerboard="0"
   inkscape:deskcolor="#d1d1d1"
   showguides="true"
   inkscape:zoom="1"
   inkscape:cx="143.5"
   inkscape:cy="275.5"
   inkscape:window-width="1789"
   inkscape:window-height="1000"
   inkscape:window-x="0"
   inkscape:window-y="0"
   inkscape:window-maximized="1"
   inkscape:current-layer="svg1" />
	
<g
   id="g4"
   transform="matrix(0.9762309,0,0,0.97666959,-9.8306452,-6.6185968)"><path
     fill="#000000"
     fill-opacity="1"
     stroke-width="0.288967"
     stroke-linejoin="round"
     d="M 35.71609,33.712867 V 6.7767 h 6.994375 V 33.712867 Z M 66.025,38.202133 C 66.025,53.078552 53.499031,65.1383 38.0475,65.1383 22.595968,65.1383 10.07,53.078552 10.07,38.202133 c 0,-12.551119 8.916282,-23.097337 20.983125,-26.087535 v 9.435455 c -6.835493,2.663987 -11.65734,9.115908 -11.65734,16.65208 0,9.917613 8.350694,17.957492 18.651715,17.957492 10.301021,0 18.651715,-8.039879 18.651715,-17.957492 0,-6.646711 -3.750899,-12.450038 -9.32593,-15.554927 V 12.798777 C 58.239746,16.496544 66.025,26.473985 66.025,38.202133 Z"
     id="path1"
     style="fill:#ff2525;fill-opacity:1" /><path
     style="fill:#ff2525;fill-opacity:1;stroke-width:0.133262"
     d="M 36.349836,65.033967 C 27.476401,64.430678 19.523779,59.950342 14.679371,52.825294 9.259281,44.853544 8.669132,34.68459 13.130772,26.141112 16.579271,19.537675 22.905817,14.477011 30.340106,12.375206 l 0.713019,-0.201583 v 4.640334 4.640332 l -0.848832,0.367387 c -5.56411,2.408227 -9.618585,7.592065 -10.64586,13.611237 -0.285559,1.673187 -0.180234,5.086108 0.205845,6.670218 0.811036,3.327731 2.355688,6.103215 4.738048,8.513488 2.675852,2.707205 6.18481,4.561679 10.035862,5.303926 1.796359,0.346228 5.503543,0.316165 7.273192,-0.05899 1.860336,-0.394372 3.211277,-0.86206 4.873601,-1.687212 4.86581,-2.415318 8.380429,-6.812407 9.648596,-12.07122 0.383074,-1.588521 0.487068,-5.005715 0.20299,-6.670217 -0.870349,-5.099691 -3.752666,-9.43932 -8.133317,-12.245561 L 47.486511,22.600087 V 17.77208 c 0,-2.655405 0.02783,-4.828008 0.06184,-4.828008 0.034,0 0.691004,0.259624 1.459991,0.576942 12.632423,5.212712 19.462777,18.51168 16.064346,31.277915 -2.802472,10.527521 -11.934484,18.453134 -23.018696,19.977778 -1.515974,0.208524 -4.464817,0.341515 -5.70415,0.257256 z"
     id="path2" /><path
     style="fill:#ff2525;fill-opacity:1;stroke-width:0.137259"
     d="M 35.806583,20.20115 V 6.7984463 h 3.395329 3.395327 V 20.20115 33.603854 h -3.395327 -3.395329 z"
     id="path3" /><path
     style="fill:#ff2525;fill-opacity:1;stroke-width:0.0117787"
     d="m 35.721692,26.801101 v -6.91138 h 0.04201 0.04201 v 6.859372 6.859371 h 3.397216 3.397216 v -6.859371 -6.859372 h 0.05402 0.05402 v 6.91138 6.91138 h -3.49325 -3.493251 z"
     id="path4" /></g></svg>
