<?xml version="1.0" encoding="UTF-8" standalone="no"?>
<!-- Uploaded to: SVG Repo, www.svgrepo.com, Generator: SVG Repo Mixer Tools -->

<svg
   width="416.66632"
   height="450"
   viewBox="0 0 39.5833 42.75"
   version="1.1"
   enable-background="new 0 0 76.00 76.00"
   xml:space="preserve"
   id="svg1"
   sodipodi:docname="reboot_chartreuse.svg"
   inkscape:version="1.4.2 (ebf0e940d0, 2025-05-08)"
   xmlns:inkscape="http://www.inkscape.org/namespaces/inkscape"
   xmlns:sodipodi="http://sodipodi.sourceforge.net/DTD/sodipodi-0.dtd"
   xmlns="http://www.w3.org/2000/svg"
   xmlns:svg="http://www.w3.org/2000/svg"><defs
   id="defs1" /><sodipodi:namedview
   id="namedview1"
   pagecolor="#ffffff"
   bordercolor="#000000"
   borderopacity="0.25"
   inkscape:showpageshadow="2"
   inkscape:pageopacity="0.0"
   inkscape:pagecheckerboard="0"
   inkscape:deskcolor="#d1d1d1"
   inkscape:zoom="0.71064231"
   inkscape:cx="-26.736376"
   inkscape:cy="390.4918"
   inkscape:window-width="1884"
   inkscape:window-height="1024"
   inkscape:window-x="0"
   inkscape:window-y="0"
   inkscape:window-maximized="1"
   inkscape:current-layer="svg1" />
	<path
   fill="#000000"
   fill-opacity="1"
   stroke-width="0.2"
   stroke-linejoin="round"
   d="m 0,31.6667 h 6.6082 c 3.0442,3.4012 7.468,5.5416 12.3918,5.5416 4.9238,0 9.3476,-2.1404 12.3918,-5.5416 h 8.1915 V 42.75 H 0 Z m 37.2083,2.375 h -2.7709 v 4.75 h 2.7709 z M 20.5833,19 l -9.5,-9.5 9.5,-9.5 v 6.4203 c 7.1249,0.7876 12.6667,6.8282 12.6667,14.163 0,7.8701 -6.3799,14.25 -14.25,14.25 -7.8701,0 -14.25,-6.3799 -14.25,-14.25 0,-2.8159 0.8168,-5.441 2.2263,-7.6514 l 4.6759,2.9756 c -0.8614,1.3508 -1.3605,2.955 -1.3605,4.6758 0,4.8095 3.8988,8.7084 8.7083,8.7084 4.8095,0 8.7083,-3.8989 8.7083,-8.7084 0,-4.2687 -3.0715,-7.8201 -7.125,-8.5647 z"
   id="path1"
   style="fill:#deff5d" />
</svg>
