<?xml version="1.0" encoding="UTF-8" standalone="no"?>
<!-- Uploaded to: SVG Repo, www.svgrepo.com, Generator: SVG Repo Mixer Tools -->

<svg
   width="416.66632"
   height="450"
   viewBox="0 0 39.5833 42.75"
   version="1.1"
   enable-background="new 0 0 76.00 76.00"
   xml:space="preserve"
   id="svg1"
   sodipodi:docname="reboot.svg"
   inkscape:version="1.4.2 (ebf0e940d0, 2025-05-08)"
   xmlns:inkscape="http://www.inkscape.org/namespaces/inkscape"
   xmlns:sodipodi="http://sodipodi.sourceforge.net/DTD/sodipodi-0.dtd"
   xmlns="http://www.w3.org/2000/svg"
   xmlns:svg="http://www.w3.org/2000/svg"><defs
   id="defs1" /><sodipodi:namedview
   id="namedview1"
   pagecolor="#ffffff"
   bordercolor="#000000"
   borderopacity="0.25"
   inkscape:showpageshadow="2"
   inkscape:pageopacity="0.0"
   inkscape:pagecheckerboard="0"
   inkscape:deskcolor="#d1d1d1"
   inkscape:zoom="0.71064231"
   inkscape:cx="-26.736376"
   inkscape:cy="390.4918"
   inkscape:window-width="1884"
   inkscape:window-height="1024"
   inkscape:window-x="0"
   inkscape:window-y="0"
   inkscape:window-maximized="1"
   inkscape:current-layer="svg1" />
	<path
   fill="#000000"
   fill-opacity="1"
   stroke-width="0.2"
   stroke-linejoin="round"
   d="m 0,31.6667 h 6.6082 c 3.0442,3.4012 7.468,5.5416 12.3918,5.5416 4.9238,0 9.3476,-2.1404 12.3918,-5.5416 h 8.1915 V 42.75 H 0 Z m 37.2083,2.375 h -2.7709 v 4.75 h 2.7709 z M 20.5833,19 l -9.5,-9.5 9.5,-9.5 v 6.4203 c 7.1249,0.7876 12.6667,6.8282 12.6667,14.163 0,7.8701 -6.3799,14.25 -14.25,14.25 -7.8701,0 -14.25,-6.3799 -14.25,-14.25 0,-2.8159 0.8168,-5.441 2.2263,-7.6514 l 4.6759,2.9756 c -0.8614,1.3508 -1.3605,2.955 -1.3605,4.6758 0,4.8095 3.8988,8.7084 8.7083,8.7084 4.8095,0 8.7083,-3.8989 8.7083,-8.7084 0,-4.2687 -3.0715,-7.8201 -7.125,-8.5647 z"
   id="path1"
   style="fill:#deff5d" />
<path
   style="fill:#ff5000;stroke-width:1.40718;fill-opacity:1"
   d="M 175.1227,363.90317 C 142.36999,357.64558 117.88146,344.78033 94.812865,321.71173 74.850346,301.7492 62.370599,280.22522 55.239639,253.45927 c -3.130853,-11.7516 -3.616342,-16.50276 -3.683744,-36.05032 -0.0648,-18.79349 0.442355,-24.59478 3.068394,-35.09882 3.276835,-13.1072 12.501327,-35.60775 16.999154,-41.46465 l 2.603541,-3.39023 22.712583,14.46424 c 12.491923,7.95534 22.975413,14.88953 23.296663,15.40932 0.32124,0.51978 -1.24875,4.7183 -3.48887,9.33005 -5.637,11.60495 -8.39838,24.90234 -8.37388,40.32429 0.0521,32.78961 14.42617,59.10111 42.45329,77.71008 27.05028,17.96037 66.81773,18.59881 96.30117,1.54603 9.84542,-5.69444 28.55024,-25.15875 33.83401,-35.2078 7.91699,-15.05707 10.91591,-27.56834 10.79353,-45.02969 -0.0885,-12.63528 -0.7805,-17.55253 -3.76649,-26.76604 -8.9693,-27.67544 -29.85967,-49.55029 -56.58417,-59.25076 -16.03514,-5.82045 -14.69946,-8.80932 -14.69946,32.89336 v 36.23232 L 167.10484,149.51014 117.50433,99.909615 167.10484,50.309097 216.70536,0.70857883 V 34.636401 68.564221 l 7.68577,0.903311 c 4.22717,0.496821 12.93408,2.558545 19.34869,4.581608 63.01993,19.87546 105.24024,77.10631 105.24024,142.65622 0,67.81876 -46.0906,127.27838 -111.90366,144.36239 -17.30447,4.49196 -46.3302,5.82037 -61.9537,2.83542 z"
   id="path2"
   transform="scale(0.095)" /><path
   style="fill:#ff7500;fill-opacity:1;stroke-width:1.40718"
   d="m 0,391.19539 v -57.69428 h 33.9035 33.903501 l 11.477979,10.68316 c 24.92364,23.19774 52.95977,37.62017 87.46557,44.9943 14.01782,2.99571 47.68813,3.40624 62.61941,0.76349 33.98222,-6.01464 66.90896,-22.59692 91.47646,-46.06856 l 10.85665,-10.37239 h 42.41076 42.41076 v 57.69428 57.69429 H 208.2623 0 Z m 392.60257,-7.73947 v -26.03279 h -15.47895 -15.47896 v 26.03279 26.03278 h 15.47896 15.47895 z"
   id="path3"
   transform="scale(0.095)" /><path
   style="fill:#ff7500;fill-opacity:1;stroke-width:1.40718"
   d="m 176.6008,363.50691 c -25.60227,-5.69142 -39.37717,-11.12364 -56.48547,-22.2754 -13.7314,-8.95058 -32.301714,-26.83114 -41.642205,-40.09549 -12.156073,-17.26273 -21.87507,-40.45419 -24.986186,-59.62198 -1.810153,-11.15247 -1.798476,-38.53654 0.02121,-49.74909 2.571135,-15.84278 16.058864,-50.29166 20.332764,-51.93171 1.513415,-0.58075 29.587107,16.50036 42.088137,25.60803 l 3.9973,2.91227 -2.92766,5.7387 c -8.33353,16.33505 -11.25825,46.1314 -6.50656,66.28714 7.33052,31.09462 33.61299,57.59011 65.40508,65.93517 12.27087,3.22096 35.66419,3.20673 47.84404,-0.0291 17.71811,-4.70719 26.14594,-9.77066 40.84572,-24.54026 16.24228,-16.31942 22.75108,-27.95768 26.16529,-46.78566 6.72444,-37.08266 -7.24339,-72.53033 -36.9262,-93.71153 -10.76126,-7.67908 -27.30741,-14.95002 -32.62432,-14.33624 l -3.79279,0.43784 -0.70359,34.83765 -0.70359,34.83765 L 167.45923,148.46469 118.91669,99.904497 167.81103,51.010163 216.70536,2.1158283 V 35.506958 68.898087 l 3.16615,0.591703 c 24.19697,4.522031 41.17568,10.696461 57.47896,20.902631 44.91819,28.119669 70.25972,73.678689 70.25972,126.312939 0,39.54928 -12.97321,72.26326 -40.00685,100.88359 -30.67267,32.47295 -65.60138,47.12876 -111.30205,46.70147 -9.28738,-0.0868 -18.1526,-0.4394 -19.70049,-0.78351 z"
   id="path4"
   transform="scale(0.095)" /></svg>
